<?xml version="1.0" standalone="no"?>
<!DOCTYPE svg PUBLIC "-//W3C//DTD SVG 20010904//EN"
 "http://www.w3.org/TR/2001/REC-SVG-20010904/DTD/svg10.dtd">
<svg version="1.0" xmlns="http://www.w3.org/2000/svg"
 width="506.000000pt" height="900.000000pt" viewBox="0 0 506.000000 900.000000"
 preserveAspectRatio="xMidYMid meet">

<g transform="translate(0.000000,900.000000) scale(0.100000,-0.100000)"
fill="#000000" stroke="none">
<path d="M0 4500 l0 -4500 2530 0 2530 0 0 4500 0 4500 -2530 0 -2530 0 0
-4500z m2578 2333 c-10 -2 -26 -2 -35 0 -10 3 -2 5 17 5 19 0 27 -2 18 -5z
m272 -308 c167 -28 276 -58 423 -116 267 -106 492 -249 694 -443 321 -306 539
-742 599 -1199 20 -148 14 -472 -10 -613 -57 -334 -182 -628 -377 -888 -281
-373 -631 -613 -1099 -751 -169 -50 -261 -65 -445 -72 -478 -17 -931 115
-1300 379 -58 41 -73 57 -69 71 5 16 2 18 -15 12 -17 -5 -38 8 -103 67 -206
185 -400 456 -507 708 l-30 70 42 31 c55 41 116 71 130 66 7 -2 12 -26 12 -60
l0 -56 -48 -21 c-48 -22 -65 -46 -24 -35 12 3 61 20 110 38 65 23 87 36 87 49
0 21 4 22 30 6 16 -10 24 -9 49 10 17 12 44 22 61 22 45 0 110 44 103 70 -6
21 6 27 23 10 7 -7 24 0 52 21 46 34 50 43 25 59 -17 9 -17 11 -1 20 10 6 15
17 11 25 -4 11 1 14 18 13 20 -3 24 3 34 47 7 28 29 96 49 152 20 56 45 140
55 185 10 46 28 107 40 135 15 40 19 64 14 99 -5 37 -3 48 10 56 12 6 17 23
17 54 0 45 27 172 39 187 13 14 -31 -785 -50 -908 -6 -38 -13 -95 -14 -126 -2
-31 -10 -69 -18 -85 -8 -16 -18 -52 -22 -79 -18 -138 -39 -255 -45 -255 -9 0
-22 -114 -24 -195 -1 -32 -8 -62 -21 -80 -10 -17 -19 -39 -20 -50 0 -11 -10
-24 -23 -30 -14 -6 -26 -22 -29 -37 -3 -16 -9 -28 -14 -28 -5 0 -9 -4 -9 -10
0 -5 19 -10 43 -10 29 -1 51 -8 70 -24 l29 -23 -30 -12 c-17 -7 -32 -21 -35
-32 -6 -24 11 -25 58 -2 24 12 38 14 46 6 18 -18 185 30 279 81 47 26 95 49
108 53 13 3 36 18 52 34 15 16 35 29 43 29 17 0 47 42 47 66 0 9 13 40 29 68
44 77 47 107 16 144 -24 29 -25 35 -25 164 0 134 -17 239 -39 246 -6 2 -11 19
-11 38 0 31 3 34 30 34 37 0 39 13 3 29 l-26 12 6 142 c3 78 11 156 17 172
l12 30 18 -50 c9 -27 38 -95 64 -149 25 -54 46 -108 46 -120 0 -12 4 -28 9
-35 14 -23 -6 -53 -30 -46 -22 7 -24 -3 -8 -39 9 -20 9 -29 -1 -41 -10 -12
-10 -16 1 -20 67 -23 68 -24 74 -62 14 -89 12 -88 98 -87 42 1 90 4 106 7 29
6 30 5 37 -41 4 -27 0 -131 -11 -243 -22 -242 -21 -242 82 -339 134 -125 190
-137 321 -70 89 47 143 54 477 65 182 6 197 5 360 -24 94 -17 184 -31 202 -31
40 0 52 17 95 131 26 72 36 89 53 89 17 1 16 4 -12 28 -51 43 -57 87 -38 275
22 230 62 367 105 367 25 0 50 38 50 76 0 19 8 38 21 50 21 19 21 22 7 154 -2
19 -10 26 -31 28 -15 2 -38 14 -51 27 -14 13 -37 27 -53 31 -15 4 -44 18 -63
31 -19 12 -41 23 -49 23 -8 0 -23 8 -33 17 -10 9 -35 18 -55 20 -21 2 -43 9
-50 15 -7 6 -29 8 -49 5 -34 -6 -84 8 -84 23 0 13 122 18 214 9 49 -5 165 -28
258 -50 179 -43 206 -45 291 -14 46 17 49 17 104 -3 32 -12 59 -19 61 -17 9 9
-11 24 -41 30 -44 10 -127 46 -127 55 0 5 8 6 18 4 9 -2 49 -10 87 -18 39 -8
78 -17 88 -21 9 -4 17 -3 17 2 0 5 -36 27 -80 48 -44 21 -80 44 -80 51 0 7 16
21 36 33 l35 21 35 -26 c19 -15 34 -22 34 -16 0 16 -112 112 -131 112 -10 0
-19 6 -21 13 -2 7 -29 37 -61 66 -43 38 -63 50 -78 46 -13 -4 -19 -2 -19 8 0
8 -17 22 -37 30 -32 13 -38 13 -41 1 -4 -17 -34 -18 -49 -3 -9 9 -26 8 -71 -5
-104 -29 -162 -18 -162 32 0 15 13 61 30 102 16 41 39 107 50 145 25 85 75
176 101 182 16 5 18 11 13 45 -7 39 -7 39 22 33 l29 -6 -27 23 c-16 13 -28 29
-28 35 0 17 -107 109 -154 133 -23 11 -56 30 -74 42 -31 19 -37 20 -108 8 -41
-7 -78 -19 -82 -26 -7 -13 -163 -47 -273 -60 l-59 -7 0 54 c0 79 17 169 36
190 40 44 237 88 439 97 l140 7 3 28 c7 58 -112 239 -198 302 -53 39 -128 57
-152 37 -7 -5 -29 -13 -48 -17 -19 -4 -121 -36 -227 -71 -106 -35 -207 -63
-225 -63 -18 1 -57 -3 -87 -10 -29 -6 -73 -11 -97 -11 -37 0 -44 -3 -44 -20 0
-15 -7 -20 -25 -20 -14 0 -25 -4 -25 -9 0 -5 -67 -9 -150 -8 -124 0 -154 3
-176 18 -27 17 -70 13 -97 -10 -7 -5 -31 -14 -55 -21 -39 -10 -46 -17 -63 -58
-11 -26 -29 -67 -40 -92 -12 -25 -27 -58 -34 -75 -15 -31 -24 -75 -29 -135 -2
-19 -7 -47 -11 -63 -6 -22 -4 -26 9 -21 8 3 18 15 21 25 9 29 33 7 41 -38 5
-24 11 -33 21 -29 8 3 18 6 23 6 5 0 12 9 15 20 3 11 14 20 24 20 10 0 21 3
25 7 4 4 22 6 39 5 18 -2 66 6 107 17 41 11 118 23 170 26 52 3 139 13 193 22
54 8 101 12 104 9 7 -7 -26 -175 -40 -201 -16 -31 -36 -43 -107 -65 -98 -31
-275 -42 -377 -23 -92 17 -127 13 -143 -17 -9 -17 1 -46 61 -168 39 -81 77
-158 84 -172 19 -35 58 -47 98 -31 88 36 199 72 205 66 10 -10 -29 -35 -55
-35 -14 0 -21 -5 -17 -13 4 -11 18 -12 66 -4 88 13 93 -1 57 -154 -14 -62 -25
-90 -37 -93 -49 -14 -145 -26 -213 -26 -109 0 -111 -5 -70 -133 18 -56 39
-123 48 -149 29 -93 67 -116 144 -84 19 7 63 17 99 20 36 4 157 25 270 46 228
43 362 65 461 75 60 6 70 5 98 -16 34 -25 32 -42 -5 -34 -13 3 -36 7 -51 10
l-28 5 29 -25 c17 -16 25 -30 19 -36 -5 -5 -78 -14 -163 -19 -85 -6 -195 -17
-245 -25 -49 -7 -117 -17 -150 -20 -117 -12 -250 -36 -280 -50 -56 -26 -152
-46 -178 -36 -26 10 -39 41 -27 61 4 7 3 26 -2 42 -6 15 -7 35 -4 44 3 8 -1
29 -9 45 -9 16 -13 34 -9 40 3 6 -3 20 -14 32 -11 12 -22 39 -24 60 -2 20 -7
36 -13 35 -5 -2 -9 -13 -7 -25 1 -13 0 -23 -4 -23 -13 0 -33 35 -34 58 0 23
-15 31 -22 11 -2 -6 -17 22 -32 62 -24 62 -41 85 -101 144 -107 105 -148 130
-208 129 l-50 -1 7 171 c4 94 14 290 22 436 18 292 15 399 -11 451 -48 95
-117 124 -295 124 -145 0 -202 -18 -271 -84 -27 -26 -49 -56 -49 -67 0 -11 19
-42 41 -69 78 -94 110 -153 125 -233 28 -146 45 -532 24 -532 -6 0 -10 31 -10
73 0 81 -32 167 -70 187 -21 11 -19 12 -113 -37 -16 -9 -31 -22 -34 -29 -3 -8
-19 -22 -35 -30 -41 -21 -101 -149 -127 -270 -12 -52 -30 -137 -42 -191 -21
-98 -73 -212 -127 -283 -15 -19 -34 -47 -41 -62 -8 -15 -33 -37 -57 -48 -35
-17 -55 -40 -112 -128 -105 -162 -165 -277 -133 -258 25 16 8 -13 -29 -49 -24
-24 -43 -35 -49 -30 -17 20 -61 203 -76 318 -17 137 -20 405 -4 545 49 447
238 860 539 1175 183 192 363 321 615 443 197 95 431 169 610 193 105 14 482
6 595 -14z m-1980 -388 c0 -2 -10 -12 -22 -23 l-23 -19 19 23 c18 21 26 27 26
19z m-120 -131 c0 -2 -8 -10 -17 -17 -16 -13 -17 -12 -4 4 13 16 21 21 21 13z
m-237 -341 c-3 -9 -8 -14 -10 -11 -3 3 -2 9 2 15 9 16 15 13 8 -4z m4217 -350
c0 -5 -5 -3 -10 5 -5 8 -10 20 -10 25 0 6 5 3 10 -5 5 -8 10 -19 10 -25z
m-4476 -251 c3 -8 2 -12 -4 -9 -6 3 -10 10 -10 16 0 14 7 11 14 -7z m3272 -86
c-3 -17 -23 -76 -43 -131 -43 -117 -42 -116 -191 -126 l-104 -6 7 30 c4 16 10
57 14 90 6 60 6 60 41 63 44 4 63 20 32 28 -12 4 -22 10 -22 15 0 12 37 11 45
-1 11 -18 35 -11 35 10 0 14 7 20 23 21 12 0 51 9 87 19 86 24 83 24 76 -12z
m1331 -280 c-3 -7 -5 -2 -5 12 0 14 2 19 5 13 2 -7 2 -19 0 -25z m-4660 -165
c-2 -21 -4 -4 -4 37 0 41 2 58 4 38 2 -21 2 -55 0 -75z m4670 -85 c-2 -24 -4
-7 -4 37 0 44 2 63 4 43 2 -21 2 -57 0 -80z m-4670 -105 c-2 -16 -4 -3 -4 27
0 30 2 43 4 28 2 -16 2 -40 0 -55z m10 -95 c-3 -7 -5 -2 -5 12 0 14 2 19 5 13
2 -7 2 -19 0 -25z m4656 -38 c3 -11 1 -18 -4 -14 -5 3 -9 12 -9 20 0 20 7 17
13 -6z m-16 -52 c-3 -8 -6 -5 -6 6 -1 11 2 17 5 13 3 -3 4 -12 1 -19z m-15
-120 c-6 -6 -7 0 -4 19 5 21 7 23 10 9 2 -10 0 -22 -6 -28z m-4595 -20 c-3 -8
-6 -5 -6 6 -1 11 2 17 5 13 3 -3 4 -12 1 -19z m4603 -18 c0 -5 -2 -10 -4 -10
-3 0 -8 5 -11 10 -3 6 -1 10 4 10 6 0 11 -4 11 -10z m-23 -42 c-3 -8 -6 -5 -6
6 -1 11 2 17 5 13 3 -3 4 -12 1 -19z m-4142 -94 c-66 -84 -68 -86 -81 -63 -10
20 -9 27 7 48 36 45 128 116 138 106 2 -2 -27 -43 -64 -91z m2901 -27 c9 -8
-28 -238 -54 -341 l-18 -70 -50 -13 c-106 -27 -553 -77 -567 -63 -5 4 2 15 14
24 13 8 20 19 16 23 -4 3 -12 2 -18 -4 -12 -12 -49 -6 -49 8 0 4 5 11 10 14
17 11 11 22 -12 21 -62 -2 -117 323 -60 353 25 13 163 42 245 51 87 10 533 8
543 -3z m1174 -104 c-11 -17 -11 -17 -6 0 3 10 6 24 7 30 0 9 2 9 5 0 3 -7 0
-20 -6 -30z m-2369 -36 c-9 -9 -14 -8 -21 3 -7 11 -5 19 8 28 14 11 18 10 20
-4 2 -9 -1 -21 -7 -27z m2350 -10 c-10 -9 -11 -8 -5 6 3 10 9 15 12 12 3 -3 0
-11 -7 -18z m-4388 -21 c4 -10 1 -13 -8 -9 -8 3 -12 9 -9 14 7 12 11 11 17 -5z
m4352 -85 c-22 -44 -26 -38 -7 10 9 23 18 37 20 31 2 -6 -4 -24 -13 -41z
m-4286 -71 c11 -24 11 -24 -3 -6 -9 11 -16 24 -16 30 0 12 5 7 19 -24z m4236
-29 c-21 -43 -29 -39 -8 4 9 19 18 33 21 31 2 -2 -4 -18 -13 -35z m-4191 -57
c3 -8 2 -12 -4 -9 -6 3 -10 10 -10 16 0 14 7 11 14 -7z m4166 -4 c0 -5 -5 -10
-11 -10 -5 0 -7 5 -4 10 3 6 8 10 11 10 2 0 4 -4 4 -10z m-29 -43 c-10 -9 -11
-8 -5 6 3 10 9 15 12 12 3 -3 0 -11 -7 -18z m-4070 -72 c14 -24 17 -35 8 -28
-9 7 -20 9 -24 5 -5 -4 -5 -1 -1 6 4 7 -2 29 -14 50 -12 20 -15 30 -7 22 7 -8
25 -33 38 -55z m43 -71 c4 -11 2 -12 -14 -4 -27 14 -34 29 -11 23 11 -3 22
-11 25 -19z m3949 11 c-3 -9 -8 -14 -10 -11 -3 3 -2 9 2 15 9 16 15 13 8 -4z
m-3922 -52 c13 -16 12 -17 -3 -4 -10 7 -18 15 -18 17 0 8 8 3 21 -13z m3879
-57 c-7 -7 -13 -7 -20 0 -6 6 -3 10 10 10 13 0 16 -4 10 -10z m-94 -124 c-4
-6 -15 -10 -26 -9 -24 2 -24 1 -4 22 18 17 42 6 30 -13z m-3576 -115 c-10 -9
-12 -9 -8 3 3 8 -6 26 -19 40 -13 14 -23 28 -23 33 0 4 14 -8 31 -28 26 -29
29 -38 19 -48z m3516 61 c4 -7 3 -8 -4 -4 -6 4 -19 -5 -28 -19 -9 -14 -19 -23
-22 -20 -5 4 36 55 44 55 2 0 6 -5 10 -12z m4 -22 c0 -2 -7 -7 -16 -10 -8 -3
-12 -2 -9 4 6 10 25 14 25 6z m-3449 -83 c12 -16 12 -17 -2 -6 -9 7 -19 10
-22 6 -4 -3 -7 -1 -7 5 0 17 16 15 31 -5z m29 -38 c7 -9 8 -15 2 -15 -5 0 -12
7 -16 15 -3 8 -4 15 -2 15 2 0 9 -7 16 -15z m3270 -4 c0 -5 -9 -11 -21 -14
-16 -4 -18 -3 -8 9 13 16 29 19 29 5z m-3236 -27 c3 -8 2 -12 -4 -9 -6 3 -10
10 -10 16 0 14 7 11 14 -7z m37 -31 c13 -16 12 -17 -3 -4 -10 7 -18 15 -18 17
0 8 8 3 21 -13z m3099 -18 c-7 -8 -9 -15 -6 -15 13 0 -27 -34 -42 -36 -8 -2
-18 -7 -21 -11 -3 -5 -22 -19 -41 -32 l-35 -23 35 32 c19 18 46 39 60 48 14 9
31 25 38 34 7 10 16 18 19 18 3 0 0 -7 -7 -15z m-3045 -31 c26 -22 27 -24 5
-13 -27 14 -56 39 -43 39 4 -1 22 -12 38 -26z m109 -95 c-3 -6 -7 -9 -8 -7 0
2 -12 16 -26 32 l-25 30 33 -23 c18 -12 29 -27 26 -32z m2772 -14 c-9 -9 -16
-13 -16 -8 0 12 22 34 28 28 2 -2 -3 -11 -12 -20z m-2698 -32 c7 -7 20 -13 28
-13 8 0 13 -4 9 -10 -9 -15 -50 9 -76 44 l-22 31 23 -20 c14 -11 30 -26 38
-32z m2675 13 c4 -10 1 -13 -8 -9 -8 3 -12 9 -9 14 7 12 11 11 17 -5z m-39
-21 c-4 -8 -11 -15 -16 -15 -6 0 -5 6 2 15 7 8 14 15 16 15 2 0 1 -7 -2 -15z
m-2504 -71 c0 -2 -9 0 -20 6 -11 6 -20 13 -20 16 0 2 9 0 20 -6 11 -6 20 -13
20 -16z m2354 -29 c3 -8 1 -15 -4 -15 -6 0 -10 7 -10 15 0 8 2 15 4 15 2 0 6
-7 10 -15z m-2289 -13 c-3 -3 -11 0 -18 7 -9 10 -8 11 6 5 10 -3 15 -9 12 -12z
m59 -25 c16 -12 16 -13 -3 -13 -11 0 -18 3 -15 7 2 4 -2 10 -8 12 -7 3 -8 6
-2 6 5 1 18 -5 28 -12z m70 -32 c11 -8 16 -15 10 -15 -5 0 -18 7 -28 15 -11 8
-16 15 -10 15 5 0 18 -7 28 -15z m1936 -45 c8 -5 11 -10 5 -10 -5 0 -17 5 -25
10 -8 5 -10 10 -5 10 6 0 17 -5 25 -10z m-1819 -18 c-7 -2 -18 1 -23 6 -8 8
-4 9 13 5 13 -4 18 -8 10 -11z m1769 3 c-7 -8 -20 -15 -29 -15 -11 1 -8 5 9
15 32 18 35 18 20 0z m-70 -25 c0 -5 -5 -10 -11 -10 -5 0 -7 5 -4 10 3 6 8 10
11 10 2 0 4 -4 4 -10z m-1583 -16 c-3 -3 -12 -4 -19 -1 -8 3 -5 6 6 6 11 1 17
-2 13 -5z m1480 -20 c-3 -3 -12 -4 -19 -1 -8 3 -5 6 6 6 11 1 17 -2 13 -5z
m-1278 -44 c8 -4 -3 -7 -27 -6 -22 0 -36 4 -30 7 7 5 6 8 -3 11 -8 3 0 3 16 0
17 -2 36 -8 44 -12z m1118 -5 c0 -8 -4 -15 -9 -15 -10 0 -11 14 -1 23 9 10 10
9 10 -8z m-1044 -12 c-7 -2 -21 -2 -30 0 -10 3 -4 5 12 5 17 0 24 -2 18 -5z
m1000 0 c-7 -2 -21 -2 -30 0 -10 3 -4 5 12 5 17 0 24 -2 18 -5z m-896 -19 c-3
-3 -12 -4 -19 -1 -8 3 -5 6 6 6 11 1 17 -2 13 -5z m40 0 c-3 -3 -12 -4 -19 -1
-8 3 -5 6 6 6 11 1 17 -2 13 -5z m730 0 c-3 -3 -12 -4 -19 -1 -8 3 -5 6 6 6
11 1 17 -2 13 -5z m-107 -14 c-8 -5 -24 -9 -35 -9 -16 1 -16 2 5 9 35 11 48
11 30 0z m-157 -7 c-56 -2 -151 -2 -210 0 -59 1 -13 3 102 3 116 0 164 -2 108
-3z"/>
<path d="M2116 5364 c-17 -44 3 -61 22 -19 15 33 15 35 -2 35 -8 0 -17 -7 -20
-16z"/>
<path d="M4110 5200 c0 -5 7 -10 16 -10 8 0 12 5 9 10 -3 6 -10 10 -16 10 -5
0 -9 -4 -9 -10z"/>
</g>
</svg>
